<svg width="64" height="64" viewBox="0 0 64 64" fill="none" xmlns="http://www.w3.org/2000/svg">
<path d="M22.3584 6.61123C23.7587 6.18905 25.2613 6.25919 26.6161 6.80997C27.971 7.36076 29.0963 8.35897 29.8048 9.63843L30.0448 10.1152L32.16 14.8224C32.8029 16.2512 33.0116 17.8374 32.7601 19.3838C32.5086 20.9302 31.8081 22.3686 30.7456 23.52L30.3232 23.9424L26.9824 27.056C26.3808 27.6256 26.832 29.8304 29.0112 33.6C30.9664 36.992 32.5632 38.576 33.344 38.6624H33.4816L33.6512 38.6304L40.2112 36.624C41.0928 36.3536 42.0337 36.343 42.9212 36.5932C43.8088 36.8435 44.6055 37.3441 45.216 38.0352L45.5104 38.4032L49.8496 44.4192C50.7011 45.5981 51.1257 47.0317 51.0536 48.4841C50.9814 49.9365 50.4169 51.321 49.4528 52.4096L49.0624 52.8128L47.3248 54.4576C45.7673 55.9326 43.8191 56.9293 41.7117 57.3292C39.6043 57.7291 37.4263 57.5155 35.4368 56.7136C29.2448 54.2176 23.6192 48.5152 18.5088 39.664C13.3888 30.7904 11.2608 23.056 12.2112 16.432C12.4991 14.4293 13.3241 12.542 14.5986 10.9706C15.8731 9.39915 17.5494 8.20232 19.4496 7.50723L20.0672 7.30243L22.3584 6.61123V6.61123Z" fill="white"/>
</svg>
