<svg width="64" height="64" viewBox="0 0 64 64" fill="none" xmlns="http://www.w3.org/2000/svg">
<path d="M57.472 35.008L56.9632 37.664C56.4928 40.1472 54.1664 41.8176 51.5328 41.5616L46.2944 41.056C44.0096 40.8352 42.3168 39.168 41.6 36.8C40.6272 33.584 40 31.2 40 31.2C37.4733 30.1172 34.7488 29.5723 32 29.6C28.7552 29.6 26.4384 30.288 24 31.2C24 31.2 23.3472 33.5872 22.4 36.8C21.7664 38.944 20.7872 40.8224 18.5504 41.0464L13.3408 41.5712C12.0722 41.693 10.8003 41.3747 9.73863 40.6696C8.67697 39.9646 7.8902 38.9158 7.51039 37.6992L6.71679 35.0464C6.32347 33.7781 6.28773 32.4259 6.6135 31.1386C6.93928 29.8514 7.61393 28.6789 8.5632 27.7504C13.1232 23.3216 21.3312 20.8256 31.9744 20.8128C42.6368 20.8 49.8752 23.2832 54.8928 27.712C57.0048 29.5744 57.9712 32.3776 57.4688 35.008H57.472Z" fill="white"/>
</svg>
